<svg width="56" height="20" viewBox="0 0 56 20" fill="none" xmlns="http://www.w3.org/2000/svg">
<path d="M11.2501 10.625C11.2501 11.6575 12.0189 12.5 12.9501 12.5C13.9026 12.5 14.6376 11.6612 14.6501 10.625C14.6626 9.58875 13.9064 8.75 12.9501 8.75C11.9901 8.75 11.2501 9.59625 11.2501 10.625ZM7.03765 12.5C6.1039 12.5 5.33765 11.6612 5.33765 10.625C5.33765 9.58875 6.08265 8.75 7.03765 8.75C7.99265 8.75 8.76265 9.59625 8.75015 10.625C8.7339 11.6575 7.99765 12.5 7.05015 12.5H7.03765Z" fill="#585858"/>
<path fill-rule="evenodd" clip-rule="evenodd" d="M16.7341 4.14592C16.9297 4.23445 17.0975 4.37447 17.2197 4.55103C19.2452 7.47679 20.2639 10.8171 19.8849 14.655C19.8687 14.821 19.8175 14.9818 19.7349 15.1267C19.6522 15.2717 19.5398 15.3975 19.4051 15.496C18.0311 16.504 16.4794 17.2728 14.8447 17.7584C14.6139 17.828 14.3672 17.8247 14.1383 17.749C13.9094 17.6734 13.7094 17.529 13.5655 17.3355C13.279 16.953 13.016 16.5535 12.7778 16.1392C11.2663 16.4571 9.70516 16.4571 8.19367 16.1392C7.9586 16.5551 7.69583 16.9548 7.40715 17.3355C7.26131 17.53 7.0592 17.6748 6.82824 17.7505C6.59727 17.8261 6.34862 17.8289 6.11602 17.7584C4.47924 17.2667 2.93738 16.5018 1.55562 15.496C1.42079 15.3974 1.30835 15.2714 1.22567 15.1262C1.14299 14.9811 1.09195 14.8201 1.07589 14.6538C0.757253 11.349 1.404 7.9731 3.74106 4.56169C3.86306 4.38282 4.03245 4.24068 4.23026 4.15066C5.4136 3.61526 6.65853 3.23384 7.94965 3.01707C8.44123 2.93416 8.93281 3.16869 9.18155 3.60223L9.28698 3.79293C10.0846 3.72423 10.8861 3.72423 11.6916 3.79293L11.7958 3.60223C11.9158 3.38963 12.0986 3.21931 12.3191 3.11457C12.5396 3.00983 12.7871 2.97577 13.0277 3.01707C14.307 3.23147 15.5626 3.6117 16.7471 4.14829L16.7341 4.14592ZM12.3869 5.06511C11.1262 4.87918 9.84517 4.87918 8.58456 5.06511C8.45383 4.76395 8.30754 4.4698 8.14629 4.18383C6.96413 4.38282 5.81278 4.73463 4.72302 5.22857C2.55535 8.40308 1.97494 11.4947 2.25922 14.5389C3.52666 15.4664 4.94808 16.1735 6.45242 16.6236C6.64815 16.3643 6.83041 16.0951 6.99849 15.817C7.12325 15.6117 7.24052 15.4024 7.35029 15.1892C6.85968 15.0082 6.386 14.7843 5.93479 14.5199C6.05324 14.4339 6.16893 14.3478 6.28185 14.2617C6.99528 14.5929 7.74506 14.8394 8.51585 14.9961C10.1486 15.3227 11.8372 15.2343 13.4269 14.7391C13.8481 14.6084 14.2598 14.4485 14.6588 14.2605C14.7725 14.3529 14.8882 14.439 15.0058 14.5188C14.8954 14.5824 14.7841 14.6444 14.6718 14.7047C14.321 14.8891 13.959 15.0513 13.588 15.1904C13.7729 15.5459 13.9778 15.8908 14.2015 16.2233C14.2939 16.3575 14.3891 16.4906 14.487 16.6225C15.9914 16.1723 17.4128 15.4676 18.6802 14.5377C19.0249 11.0078 18.0915 7.93994 16.2164 5.22739C15.1267 4.73344 13.9777 4.38401 12.7932 4.18619C12.6321 4.47206 12.486 4.76582 12.3549 5.06748L12.3869 5.06511Z" fill="#585858"/>
<path d="M50.4412 3H52.8102L47.6352 8.9297L53.7238 17H48.9571L45.221 12.1064L40.9508 17H38.5796L44.1142 10.6554L38.2761 3.0011H43.1642L46.5362 7.4732L50.4412 3ZM49.6081 15.5788H50.9211L42.447 4.34726H41.039L49.6081 15.5788Z" fill="#585858"/>
</svg>
