<svg width="179" height="180" viewBox="0 0 179 180" fill="none" xmlns="http://www.w3.org/2000/svg">
<path d="M161.883 38.6427C172.781 53.936 178.55 72.2903 178.361 91.0682L89.5658 90.1744L161.883 38.6427Z" fill="#A8A7A6" stroke="white" stroke-width="1.26857"/>
<path d="M118.283 6.1463C136.013 12.2056 151.372 23.7177 162.162 39.0356L89.5658 90.1744L118.283 6.1463Z" fill="#B6A05D" stroke="white" stroke-width="1.26857"/>
<path d="M63.737 5.21409C81.6637 -0.235782 100.855 0.124419 118.564 6.24314L89.5658 90.1744L63.737 5.21409Z" fill="url(#paint0_linear_5188_2464)" stroke="white" stroke-width="1.26857"/>
<path d="M18.8399 36.4787C30.1697 21.5555 45.9296 10.5984 63.8644 5.17546L89.5658 90.1744L18.8399 36.4787Z" fill="#1F1F23" stroke="white" stroke-width="1.26857"/>
<path d="M178.365 90.1744C178.365 104.343 174.975 118.307 168.477 130.898C161.979 143.489 152.562 154.343 141.013 162.552C129.465 170.761 116.119 176.087 102.092 178.086C88.0643 180.085 73.7623 178.698 60.3803 174.041L89.5658 90.1744H178.365Z" fill="#CE7011" stroke="white" stroke-width="1.26857"/>
<path d="M60.5818 174.111C47.3041 169.526 35.3034 161.856 25.5657 151.732C15.828 141.608 8.63096 129.318 4.56583 115.872C0.500702 102.426 -0.316552 88.2079 2.1812 74.3847C4.67895 60.5614 10.4204 47.528 18.9341 36.3549L89.5658 90.1744L60.5818 174.111Z" fill="#194B00" stroke="white" stroke-width="1.26857"/>
<defs>
<linearGradient id="paint0_linear_5188_2464" x1="-247.17" y1="-220.867" x2="177.973" y2="179.391" gradientUnits="userSpaceOnUse">
<stop stop-color="#90A99A"/>
<stop offset="1" stop-color="#52705F"/>
</linearGradient>
</defs>
</svg>
