<svg width="282" height="283" viewBox="0 0 282 283" fill="none" xmlns="http://www.w3.org/2000/svg">
<path d="M254.518 60.3651C271.661 84.423 280.736 113.296 280.439 142.836L140.755 141.43L254.518 60.3651Z" fill="#A8A7A6" stroke="white" stroke-width="1.99558"/>
<path d="M185.93 9.24513C213.82 18.7769 237.982 36.8868 254.956 60.9832L140.755 141.43L185.93 9.24513Z" fill="#B6A05D" stroke="white" stroke-width="1.99558"/>
<path d="M100.124 7.77866C128.324 -0.794522 158.514 -0.227891 186.373 9.39747L140.755 141.43L100.124 7.77866Z" fill="url(#paint0_linear_5162_3141)" stroke="white" stroke-width="1.99558"/>
<path d="M29.4963 56.961C47.3193 33.4853 72.1111 16.2488 100.324 7.7179L140.755 141.43L29.4963 56.961Z" fill="#1F1F23" stroke="white" stroke-width="1.99558"/>
<path d="M280.446 141.43C280.446 163.719 275.112 185.685 264.89 205.492C254.668 225.299 239.855 242.373 221.687 255.287C203.52 268.201 182.526 276.579 160.46 279.724C138.393 282.868 115.895 280.686 94.8435 273.36L140.755 141.43H280.446Z" fill="#CE7011" stroke="white" stroke-width="1.99558"/>
<path d="M95.1605 273.47C74.2733 266.257 55.3951 254.192 40.0767 238.266C24.7583 222.34 13.4366 203.007 7.04179 181.855C0.646935 160.703 -0.638687 138.336 3.29052 116.591C7.21974 94.8456 16.2517 74.3426 29.6444 56.7662L140.755 141.43L95.1605 273.47Z" fill="#194B00" stroke="white" stroke-width="1.99558"/>
<defs>
<linearGradient id="paint0_linear_5162_3141" x1="-388.963" y1="-347.869" x2="279.828" y2="281.777" gradientUnits="userSpaceOnUse">
<stop stop-color="#90A99A"/>
<stop offset="1" stop-color="#52705F"/>
</linearGradient>
</defs>
</svg>
