<svg width="16" height="13" viewBox="0 0 16 13" fill="none" xmlns="http://www.w3.org/2000/svg">
<path d="M1.33301 3.43042L6.77629 7.24072C7.21707 7.54927 7.43746 7.70354 7.67718 7.76329C7.88894 7.81608 8.11045 7.81608 8.32221 7.76329C8.56189 7.70354 8.78229 7.54927 9.22309 7.24072L14.6664 3.43042M4.53301 12.0971H11.4664C12.5864 12.0971 13.1465 12.0971 13.5743 11.8791C13.9507 11.6874 14.2566 11.3814 14.4484 11.0051C14.6664 10.5772 14.6664 10.0172 14.6664 8.89705V4.63042C14.6664 3.51032 14.6664 2.95027 14.4484 2.52244C14.2566 2.14612 13.9507 1.84016 13.5743 1.64841C13.1465 1.43042 12.5864 1.43042 11.4664 1.43042H4.53301C3.4129 1.43042 2.85286 1.43042 2.42503 1.64841C2.0487 1.84016 1.74274 2.14612 1.551 2.52244C1.33301 2.95027 1.33301 3.51032 1.33301 4.63042V8.89705C1.33301 10.0172 1.33301 10.5772 1.551 11.0051C1.74274 11.3814 2.0487 11.6874 2.42503 11.8791C2.85286 12.0971 3.4129 12.0971 4.53301 12.0971Z" stroke="#1C1C1C" stroke-opacity="0.7" stroke-width="1.33334" stroke-linecap="round" stroke-linejoin="round"/>
</svg>
