<svg width="26" height="20" viewBox="0 0 26 20" fill="none" xmlns="http://www.w3.org/2000/svg">
<path fill-rule="evenodd" clip-rule="evenodd" d="M21.3285 1.70284C21.588 1.82028 21.8107 2.00604 21.9728 2.24027C24.6599 6.1217 26.0113 10.5531 25.5085 15.6446C25.487 15.8649 25.4191 16.0781 25.3095 16.2704C25.1998 16.4627 25.0507 16.6296 24.872 16.7603C23.0492 18.0976 20.9906 19.1174 18.822 19.7617C18.5158 19.854 18.1885 19.8497 17.8849 19.7493C17.5812 19.6489 17.3158 19.4573 17.1249 19.2007C16.7449 18.6932 16.3959 18.1632 16.0799 17.6136C14.0747 18.0354 12.0037 18.0354 9.99847 17.6136C9.68662 18.1654 9.33802 18.6956 8.95504 19.2007C8.76158 19.4586 8.49345 19.6508 8.18704 19.7512C7.88062 19.8515 7.55076 19.8552 7.24218 19.7617C5.07077 19.1093 3.02528 18.0946 1.19218 16.7603C1.01332 16.6294 0.864146 16.4623 0.754461 16.2697C0.644776 16.0771 0.577059 15.8636 0.555755 15.643C0.133041 11.2587 0.991041 6.78013 4.09147 2.25441C4.25333 2.01713 4.47804 1.82855 4.74047 1.70913C6.31033 0.998839 7.9619 0.492839 9.67475 0.205268C10.3269 0.095268 10.979 0.406411 11.309 0.981554L11.4489 1.23455C12.507 1.14341 13.5703 1.14341 14.6389 1.23455L14.7772 0.981554C14.9364 0.699521 15.1789 0.473569 15.4714 0.334611C15.7639 0.195654 16.0923 0.150479 16.4115 0.205268C18.1086 0.489697 19.7743 0.994125 21.3458 1.70598L21.3285 1.70284ZM15.5613 2.92227C13.8889 2.67561 12.1894 2.67561 10.517 2.92227C10.3436 2.52274 10.1495 2.1325 9.93561 1.75313C8.36733 2.01713 6.8399 2.48384 5.39418 3.13913C2.51847 7.35055 1.74847 11.452 2.12561 15.4906C3.80704 16.721 5.69275 17.6591 7.68847 18.2563C7.94813 17.9122 8.18993 17.555 8.4129 17.1861C8.57842 16.9137 8.73399 16.6361 8.87961 16.3533C8.22875 16.1132 7.60036 15.8161 7.00175 15.4654C7.1589 15.3512 7.31237 15.237 7.46218 15.1228C8.40864 15.5623 9.40333 15.8892 10.4259 16.0971C12.5919 16.5304 14.8321 16.4131 16.941 15.7561C17.4999 15.5828 18.046 15.3707 18.5753 15.1213C18.7262 15.2438 18.8797 15.358 19.0358 15.4638C18.8893 15.5482 18.7415 15.6305 18.5926 15.7106C18.1273 15.9552 17.647 16.1704 17.1548 16.3548C17.4001 16.8265 17.6719 17.284 17.9688 17.7251C18.0913 17.9032 18.2176 18.0797 18.3475 18.2547C20.3432 17.6576 22.2289 16.7226 23.9103 15.489C24.3676 10.8061 23.1293 6.73612 20.6418 3.13755C19.196 2.48227 17.6718 2.0187 16.1003 1.75627C15.8866 2.13551 15.6928 2.52522 15.5189 2.92541L15.5613 2.92227Z" fill="#B6A05D"/>
</svg>
