<svg width="14" height="12" viewBox="0 0 14 12" fill="none" xmlns="http://www.w3.org/2000/svg">
<path fill-rule="evenodd" clip-rule="evenodd" d="M5.43222 4.16705L6.78748 1.9988L8.14272 4.16705C8.18909 4.24127 8.25023 4.30515 8.32235 4.35471C8.39447 4.40427 8.47603 4.43845 8.56193 4.45513C8.64784 4.4718 8.73626 4.47061 8.82168 4.45163C8.90711 4.43265 8.98771 4.39628 9.05848 4.3448L11.9685 2.2283L10.851 8.0978C10.8428 8.14056 10.82 8.17915 10.7864 8.20693C10.7529 8.23471 10.7108 8.24995 10.6672 8.25005H2.90847C2.8648 8.25013 2.82248 8.23496 2.78879 8.20717C2.75511 8.17937 2.73218 8.14069 2.72397 8.0978L1.60647 2.22755L4.51647 4.34405C4.58721 4.39541 4.66776 4.43167 4.75311 4.45058C4.83846 4.4695 4.92678 4.47065 5.0126 4.45398C5.09841 4.43731 5.17988 4.40317 5.25194 4.35368C5.324 4.30419 5.38511 4.24041 5.43148 4.1663M7.32748 0.740297C7.27019 0.648542 7.19049 0.572874 7.09589 0.520414C7.00129 0.467955 6.8949 0.44043 6.78673 0.44043C6.67855 0.44043 6.57216 0.467955 6.47756 0.520414C6.38296 0.572874 6.30326 0.648542 6.24597 0.740297L4.75497 3.12755L1.27197 0.594047C0.804725 0.254297 0.161975 0.661547 0.270725 1.22855L1.61847 8.30855C1.67574 8.60868 1.83593 8.87942 2.07141 9.07411C2.3069 9.26879 2.60293 9.37522 2.90847 9.37505H10.6672C10.9727 9.37502 11.2687 9.2684 11.504 9.07358C11.7394 8.87876 11.8994 8.60794 11.9565 8.3078L13.3042 1.22855C13.413 0.661547 12.771 0.253547 12.3037 0.594047L8.81997 3.12755L7.32748 0.740297ZM2.28747 10.5C2.13829 10.5 1.99522 10.5593 1.88973 10.6648C1.78424 10.7703 1.72497 10.9134 1.72497 11.0625C1.72497 11.2117 1.78424 11.3548 1.88973 11.4603C1.99522 11.5658 2.13829 11.625 2.28747 11.625H11.2875C11.4367 11.625 11.5797 11.5658 11.6852 11.4603C11.7907 11.3548 11.85 11.2117 11.85 11.0625C11.85 10.9134 11.7907 10.7703 11.6852 10.6648C11.5797 10.5593 11.4367 10.5 11.2875 10.5H2.28747Z" fill="#CE7011"/>
</svg>
