<svg width="16" height="22" viewBox="0 0 16 22" fill="none" xmlns="http://www.w3.org/2000/svg">
<path d="M4.25013 17.4253H11.7501V18.9253H4.25013V17.4253ZM5.75013 20.4253H10.2501V21.9253H5.75013V20.4253ZM8.00013 0.925293C6.011 0.925293 4.10335 1.71547 2.69683 3.12199C1.2903 4.52851 0.500126 6.43617 0.500126 8.42529C0.449407 9.5153 0.658207 10.6018 1.10935 11.5953C1.56049 12.5889 2.24108 13.4611 3.09513 14.1403C3.84513 14.8378 4.25013 15.2353 4.25013 15.9253H5.75013C5.75013 14.5453 4.91763 13.7728 4.10763 13.0303C3.40665 12.4935 2.84798 11.793 2.48056 10.9902C2.11314 10.1873 1.94818 9.30667 2.00013 8.42529C2.00013 6.83399 2.63227 5.30787 3.75749 4.18265C4.8827 3.05743 6.40883 2.42529 8.00013 2.42529C9.59142 2.42529 11.1175 3.05743 12.2428 4.18265C13.368 5.30787 14.0001 6.83399 14.0001 8.42529C14.0512 9.30732 13.8851 10.1884 13.5163 10.9913C13.1476 11.7942 12.5875 12.4943 11.8851 13.0303C11.0826 13.7803 10.2501 14.5303 10.2501 15.9253H11.7501C11.7501 15.2353 12.1476 14.8378 12.9051 14.1328C13.7586 13.4548 14.4389 12.5838 14.89 11.5916C15.3411 10.5993 15.5503 9.51413 15.5001 8.42529C15.5001 7.44038 15.3061 6.46511 14.9292 5.55517C14.5523 4.64523 13.9999 3.81843 13.3034 3.12199C12.607 2.42555 11.7802 1.87311 10.8703 1.4962C9.96031 1.11929 8.98504 0.925293 8.00013 0.925293Z" fill="#B6A05D"/>
</svg>
