<svg width="16" height="17" viewBox="0 0 16 17" fill="none" xmlns="http://www.w3.org/2000/svg">
<path d="M15.2624 7.2125L8.36242 16.25L1.44742 7.22L1.51492 7.16C1.67242 7.0025 1.85992 6.875 2.04742 6.77L7.40992 13.7675L5.79742 8.75L6.29242 7.8575L8.36242 14.285L10.4099 7.85L10.9124 8.75L9.31492 13.7675L14.6699 6.7625C14.8574 6.875 15.0374 6.98 15.1874 7.1375L15.2624 7.2125ZM3.11242 5.75C4.23742 5.75 5.21992 6.395 5.73742 7.325C5.99138 6.84941 6.3697 6.4517 6.83201 6.17431C7.29432 5.89693 7.82328 5.75027 8.36242 5.75C9.48742 5.75 10.4624 6.3875 10.9874 7.3175C11.2398 6.84116 11.618 6.44316 12.0808 6.16678C12.5436 5.89041 13.0734 5.74626 13.6124 5.75C14.4299 5.75 15.1799 6.065 15.7199 6.605C15.0674 3.125 12.0224 0.5 8.36242 0.5C4.67992 0.5 1.63492 3.125 0.982422 6.6275C1.52992 6.0875 2.27992 5.75 3.11242 5.75Z" fill="url(#paint0_linear_5163_1925)"/>
<defs>
<linearGradient id="paint0_linear_5163_1925" x1="-19.5917" y1="-19.209" x2="17.8782" y2="13.8" gradientUnits="userSpaceOnUse">
<stop stop-color="#90A99A"/>
<stop offset="1" stop-color="#52705F"/>
</linearGradient>
</defs>
</svg>
