<svg width="16" height="12" viewBox="0 0 16 12" fill="none" xmlns="http://www.w3.org/2000/svg">
<path d="M1.33325 2.6665L6.77653 6.4768C7.21732 6.78535 7.43771 6.93962 7.67743 6.99938C7.88919 7.05216 8.11069 7.05216 8.32245 6.99938C8.56213 6.93962 8.78253 6.78535 9.22333 6.4768L14.6666 2.6665M4.53325 11.3331H11.4666C12.5867 11.3331 13.1468 11.3331 13.5745 11.1152C13.9509 10.9235 14.2569 10.6175 14.4486 10.2411C14.6666 9.8133 14.6666 9.2533 14.6666 8.13314V3.8665C14.6666 2.7464 14.6666 2.18635 14.4486 1.75853C14.2569 1.3822 13.9509 1.07624 13.5745 0.884496C13.1468 0.666504 12.5867 0.666504 11.4666 0.666504H4.53325C3.41315 0.666504 2.8531 0.666504 2.42528 0.884496C2.04895 1.07624 1.74299 1.3822 1.55124 1.75853C1.33325 2.18635 1.33325 2.7464 1.33325 3.8665V8.13314C1.33325 9.2533 1.33325 9.8133 1.55124 10.2411C1.74299 10.6175 2.04895 10.9235 2.42528 11.1152C2.8531 11.3331 3.41315 11.3331 4.53325 11.3331Z" stroke="#1C1C1C" stroke-opacity="0.7" stroke-width="1.33334" stroke-linecap="round" stroke-linejoin="round"/>
</svg>
