<svg width="15" height="15" viewBox="0 0 15 15" fill="none" xmlns="http://www.w3.org/2000/svg">
<path d="M7.21177 13.5056V6.37047M4.14315 3.66053C2.89922 3.66053 1.95351 0.619019 4.55084 0.619019C6.14823 0.619019 7.21177 2.74818 7.21177 3.66053C7.21177 2.74818 8.27531 0.619019 9.8727 0.619019C12.47 0.619019 11.5243 3.66053 10.2804 3.66053M12.713 12.4639V6.37255H1.71056V12.4639C1.71056 12.7405 1.82042 13.0057 2.01596 13.2012C2.2115 13.3968 2.47671 13.5066 2.75325 13.5066H11.6703C11.9468 13.5066 12.212 13.3968 12.4076 13.2012C12.6031 13.0057 12.713 12.7405 12.713 12.4639ZM13.6118 4.70322V5.32883C13.6118 5.60536 13.5019 5.87057 13.3064 6.06612C13.1108 6.26166 12.8456 6.37151 12.5691 6.37151H1.85445C1.57792 6.37151 1.3127 6.26166 1.11716 6.06612C0.921622 5.87057 0.811768 5.60536 0.811768 5.32883V4.70322C0.811768 4.42668 0.921622 4.16147 1.11716 3.96593C1.3127 3.77038 1.57792 3.66053 1.85445 3.66053H12.5691C12.8456 3.66053 13.1108 3.77038 13.3064 3.96593C13.5019 4.16147 13.6118 4.42668 13.6118 4.70322Z" stroke="url(#paint0_linear_5163_1929)" stroke-width="1.04269" stroke-linecap="round" stroke-linejoin="round"/>
<defs>
<linearGradient id="paint0_linear_5163_1929" x1="-17.0575" y1="-15.5081" x2="13.7797" y2="13.327" gradientUnits="userSpaceOnUse">
<stop stop-color="#90A99A"/>
<stop offset="1" stop-color="#52705F"/>
</linearGradient>
</defs>
</svg>
