<svg width="22" height="20" viewBox="0 0 22 20" fill="none" xmlns="http://www.w3.org/2000/svg">
<path d="M21.1691 9.25946L12.7882 0.878506C12.6416 0.732039 12.455 0.632299 12.2518 0.591895C12.0486 0.551491 11.838 0.572237 11.6466 0.651511C11.4552 0.730784 11.2916 0.865025 11.1765 1.03726C11.0614 1.2095 10.9999 1.41201 10.9999 1.61917V5.33298C8.13808 5.59781 5.47811 6.92103 3.5405 9.04368C1.60289 11.1663 0.527109 13.9356 0.523682 16.8096V18.3811C0.523847 18.5985 0.591682 18.8106 0.717778 18.9877C0.843874 19.1649 1.02198 19.2985 1.22739 19.3698C1.43281 19.4412 1.65535 19.4469 1.86414 19.3861C2.07294 19.3253 2.25764 19.2011 2.39263 19.0306C3.41914 17.8103 4.67848 16.8066 6.09712 16.0783C7.51576 15.35 9.06528 14.9117 10.6552 14.7888C10.7076 14.7825 10.8385 14.772 10.9999 14.7616V18.3811C10.9999 18.5882 11.0614 18.7907 11.1765 18.963C11.2916 19.1352 11.4552 19.2695 11.6466 19.3487C11.838 19.428 12.0486 19.4488 12.2518 19.4084C12.455 19.368 12.6416 19.2682 12.7882 19.1217L21.1691 10.7408C21.3655 10.5443 21.4758 10.2779 21.4758 10.0001C21.4758 9.72233 21.3655 9.45592 21.1691 9.25946ZM13.0951 15.8521V13.6668C13.0951 13.3889 12.9847 13.1225 12.7883 12.926C12.5918 12.7295 12.3253 12.6192 12.0475 12.6192C11.7803 12.6192 10.6898 12.6716 10.4111 12.7082C7.58756 12.9681 4.89987 14.0408 2.6734 15.7966C2.92613 13.486 4.02225 11.3498 5.75188 9.79705C7.48152 8.24429 9.72312 7.38406 12.0475 7.38108C12.3253 7.38108 12.5918 7.2707 12.7883 7.07424C12.9847 6.87777 13.0951 6.6113 13.0951 6.33346V4.14813L18.9471 10.0001L13.0951 15.8521Z" fill="#B6A05D"/>
</svg>
