<svg width="16" height="22" viewBox="0 0 16 22" fill="none" xmlns="http://www.w3.org/2000/svg">
<path d="M4.25013 17H11.7501V18.5H4.25013V17ZM5.75013 20H10.2501V21.5H5.75013V20ZM8.00013 0.5C6.011 0.5 4.10335 1.29018 2.69683 2.6967C1.2903 4.10322 0.500126 6.01088 0.500126 8C0.449407 9.09 0.658207 10.1765 1.10935 11.17C1.56049 12.1636 2.24108 13.0358 3.09513 13.715C3.84513 14.4125 4.25013 14.81 4.25013 15.5H5.75013C5.75013 14.12 4.91763 13.3475 4.10763 12.605C3.40665 12.0682 2.84798 11.3677 2.48056 10.5649C2.11314 9.76205 1.94818 8.88138 2.00013 8C2.00013 6.4087 2.63227 4.88258 3.75749 3.75736C4.8827 2.63214 6.40883 2 8.00013 2C9.59142 2 11.1175 2.63214 12.2428 3.75736C13.368 4.88258 14.0001 6.4087 14.0001 8C14.0512 8.88203 13.8851 9.76312 13.5163 10.566C13.1476 11.3689 12.5875 12.069 11.8851 12.605C11.0826 13.355 10.2501 14.105 10.2501 15.5H11.7501C11.7501 14.81 12.1476 14.4125 12.9051 13.7075C13.7586 13.0295 14.4389 12.1585 14.89 11.1663C15.3411 10.174 15.5503 9.08884 15.5001 8C15.5001 7.01509 15.3061 6.03982 14.9292 5.12987C14.5523 4.21993 13.9999 3.39314 13.3034 2.6967C12.607 2.00026 11.7802 1.44781 10.8703 1.0709C9.96031 0.693993 8.98504 0.5 8.00013 0.5Z" fill="#B6A05D"/>
</svg>
