<svg width="19" height="15" viewBox="0 0 19 15" fill="none" xmlns="http://www.w3.org/2000/svg">
<path fill-rule="evenodd" clip-rule="evenodd" d="M15.7341 1.14592C15.9297 1.23445 16.0975 1.37447 16.2197 1.55103C18.2452 4.47679 19.2639 7.81713 18.8849 11.655C18.8687 11.821 18.8175 11.9818 18.7349 12.1267C18.6522 12.2717 18.5398 12.3975 18.4051 12.496C17.0311 13.504 15.4794 14.2728 13.8447 14.7584C13.6139 14.828 13.3672 14.8247 13.1383 14.749C12.9094 14.6734 12.7094 14.529 12.5655 14.3355C12.279 13.953 12.016 13.5535 11.7778 13.1392C10.2663 13.4571 8.70516 13.4571 7.19367 13.1392C6.9586 13.5551 6.69583 13.9548 6.40715 14.3355C6.26131 14.53 6.0592 14.6748 5.82824 14.7505C5.59727 14.8261 5.34862 14.8289 5.11602 14.7584C3.47924 14.2667 1.93738 13.5018 0.555619 12.496C0.420793 12.3974 0.308349 12.2714 0.22567 12.1262C0.142991 11.9811 0.0919473 11.8201 0.0758887 11.6538C-0.242747 8.34898 0.404001 4.9731 2.74106 1.56169C2.86306 1.38282 3.03245 1.24068 3.23026 1.15066C4.4136 0.615256 5.65853 0.233841 6.94965 0.0170738C7.44123 -0.0658425 7.93281 0.168692 8.18155 0.602226L8.28698 0.792934C9.08455 0.724232 9.88608 0.724232 10.6916 0.792934L10.7958 0.602226C10.9158 0.389634 11.0986 0.219315 11.3191 0.114571C11.5396 0.00982671 11.7871 -0.0242253 12.0277 0.0170738C13.307 0.231472 14.5626 0.611702 15.7471 1.14829L15.7341 1.14592ZM11.3869 2.06511C10.1262 1.87918 8.84517 1.87918 7.58456 2.06511C7.45383 1.76395 7.30754 1.4698 7.14629 1.18383C5.96413 1.38282 4.81278 1.73463 3.72302 2.22857C1.55535 5.40308 0.974939 8.49468 1.25922 11.5389C2.52666 12.4664 3.94808 13.1735 5.45242 13.6236C5.64815 13.3643 5.83041 13.0951 5.99849 12.817C6.12325 12.6117 6.24052 12.4024 6.35029 12.1892C5.85968 12.0082 5.386 11.7843 4.93479 11.5199C5.05324 11.4339 5.16893 11.3478 5.28185 11.2617C5.99528 11.5929 6.74506 11.8394 7.51585 11.9961C9.14858 12.3227 10.8372 12.2343 12.4269 11.7391C12.8481 11.6084 13.2598 11.4485 13.6588 11.2605C13.7725 11.3529 13.8882 11.439 14.0058 11.5188C13.8954 11.5824 13.7841 11.6444 13.6718 11.7047C13.321 11.8891 12.959 12.0513 12.588 12.1904C12.7729 12.5459 12.9778 12.8908 13.2015 13.2233C13.2939 13.3575 13.3891 13.4906 13.487 13.6225C14.9914 13.1723 16.4128 12.4676 17.6802 11.5377C18.0249 8.00784 17.0915 4.93994 15.2164 2.22739C14.1267 1.73344 12.9777 1.38401 11.7932 1.18619C11.6321 1.47206 11.486 1.76582 11.3549 2.06748L11.3869 2.06511Z" fill="#ECECEC"/>
</svg>
