<svg width="16" height="14" viewBox="0 0 16 14" fill="none" xmlns="http://www.w3.org/2000/svg">
<path d="M0.5 1C0.5 0.867392 0.552679 0.740215 0.646447 0.646447C0.740215 0.552679 0.867392 0.5 1 0.5H15C15.1326 0.5 15.2598 0.552679 15.3536 0.646447C15.4473 0.740215 15.5 0.867392 15.5 1C15.5 1.13261 15.4473 1.25979 15.3536 1.35355C15.2598 1.44732 15.1326 1.5 15 1.5H1C0.867392 1.5 0.740215 1.44732 0.646447 1.35355C0.552679 1.25979 0.5 1.13261 0.5 1ZM0.5 7C0.5 6.86739 0.552679 6.74021 0.646447 6.64645C0.740215 6.55268 0.867392 6.5 1 6.5H15C15.1326 6.5 15.2598 6.55268 15.3536 6.64645C15.4473 6.74021 15.5 6.86739 15.5 7C15.5 7.13261 15.4473 7.25979 15.3536 7.35355C15.2598 7.44732 15.1326 7.5 15 7.5H1C0.867392 7.5 0.740215 7.44732 0.646447 7.35355C0.552679 7.25979 0.5 7.13261 0.5 7ZM1 12.5C0.867392 12.5 0.740215 12.5527 0.646447 12.6464C0.552679 12.7402 0.5 12.8674 0.5 13C0.5 13.1326 0.552679 13.2598 0.646447 13.3536C0.740215 13.4473 0.867392 13.5 1 13.5H15C15.1326 13.5 15.2598 13.4473 15.3536 13.3536C15.4473 13.2598 15.5 13.1326 15.5 13C15.5 12.8674 15.4473 12.7402 15.3536 12.6464C15.2598 12.5527 15.1326 12.5 15 12.5H1Z" fill="black"/>
</svg>
