<svg width="22" height="19" viewBox="0 0 22 19" fill="none" xmlns="http://www.w3.org/2000/svg">
<path d="M21.1694 8.68475L12.7884 0.303799C12.6419 0.157332 12.4552 0.0575924 12.2521 0.0171882C12.0489 -0.0232159 11.8383 -0.00246983 11.6469 0.0768035C11.4555 0.156077 11.2919 0.290318 11.1767 0.462557C11.0616 0.634796 11.0002 0.837299 11.0001 1.04447V4.75828C8.13833 5.02311 5.47835 6.34632 3.54074 8.46897C1.60313 10.5916 0.527353 13.3609 0.523926 16.2349V17.8064C0.524091 18.0238 0.591926 18.2359 0.718022 18.413C0.844119 18.5902 1.02223 18.7237 1.22764 18.7951C1.43305 18.8665 1.65559 18.8722 1.86439 18.8114C2.07318 18.7506 2.25788 18.6264 2.39288 18.4559C3.41938 17.2355 4.67872 16.2319 6.09736 15.5036C7.516 14.7753 9.06552 14.337 10.6554 14.2141C10.7078 14.2078 10.8388 14.1973 11.0001 14.1868V17.8064C11.0002 18.0135 11.0616 18.216 11.1767 18.3883C11.2919 18.5605 11.4555 18.6948 11.6469 18.774C11.8383 18.8533 12.0489 18.8741 12.2521 18.8336C12.4552 18.7932 12.6419 18.6935 12.7884 18.547L21.1694 10.1661C21.3658 9.96963 21.4761 9.70321 21.4761 9.42542C21.4761 9.14763 21.3658 8.88121 21.1694 8.68475ZM13.0954 15.2774V13.0921C13.0954 12.8142 12.985 12.5478 12.7885 12.3513C12.592 12.1548 12.3256 12.0445 12.0477 12.0445C11.7806 12.0445 10.69 12.0968 10.4114 12.1335C7.58781 12.3934 4.90012 13.4661 2.67364 15.2219C2.92637 12.9113 4.02249 10.7751 5.75213 9.22235C7.48176 7.66958 9.72336 6.80935 12.0477 6.80637C12.3256 6.80637 12.592 6.696 12.7885 6.49953C12.985 6.30306 13.0954 6.0366 13.0954 5.75875V3.57342L18.9474 9.42542L13.0954 15.2774Z" fill="#B6A05D"/>
</svg>
