<svg width="22" height="22" viewBox="0 0 22 22" fill="none" xmlns="http://www.w3.org/2000/svg">
<path d="M11.0002 0.333313C8.8905 0.333313 6.82821 0.958902 5.07408 2.13097C3.31996 3.30304 1.95279 4.96894 1.14545 6.91802C0.338118 8.8671 0.126882 11.0118 0.538458 13.0809C0.950034 15.1501 1.96594 17.0507 3.4577 18.5425C4.94946 20.0342 6.85007 21.0501 8.9192 21.4617C10.9883 21.8733 13.133 21.662 15.0821 20.8547C17.0312 20.0474 18.6971 18.6802 19.8692 16.9261C21.0412 15.1719 21.6668 13.1096 21.6668 11C21.6668 8.171 20.543 5.4579 18.5426 3.45751C16.5423 1.45712 13.8291 0.333313 11.0002 0.333313ZM1.66683 11C1.66747 8.75724 2.47971 6.59049 3.9535 4.89998L17.1002 18.0466C15.7481 19.2142 14.0894 19.9692 12.3209 20.222C10.5525 20.4748 8.74866 20.2148 7.12363 19.4728C5.49859 18.7308 4.12063 17.5381 3.15336 16.0362C2.18609 14.5343 1.67016 12.7864 1.66683 11ZM18.0468 17.1L4.90017 3.95331C6.68907 2.4586 8.97258 1.68744 11.3014 1.79156C13.6303 1.89568 15.8358 2.86753 17.4842 4.51592C19.1326 6.1643 20.1045 8.36988 20.2086 10.6987C20.3127 13.0276 19.5415 15.3111 18.0468 17.1Z" fill="#B6A05D"/>
</svg>
