<svg width="19" height="16" viewBox="0 0 19 16" fill="none" xmlns="http://www.w3.org/2000/svg">
<path fill-rule="evenodd" clip-rule="evenodd" d="M15.7341 1.57121C15.9297 1.65974 16.0975 1.79977 16.2197 1.97632C18.2452 4.90208 19.2639 8.24243 18.8849 12.0803C18.8687 12.2463 18.8175 12.4071 18.7349 12.552C18.6522 12.697 18.5398 12.8228 18.4051 12.9213C17.0311 13.9293 15.4794 14.6981 13.8447 15.1837C13.6139 15.2533 13.3672 15.25 13.1383 15.1743C12.9094 15.0987 12.7094 14.9543 12.5655 14.7608C12.279 14.3783 12.016 13.9788 11.7778 13.5645C10.2663 13.8824 8.70516 13.8824 7.19367 13.5645C6.9586 13.9804 6.69583 14.3801 6.40715 14.7608C6.26131 14.9553 6.0592 15.1001 5.82824 15.1758C5.59727 15.2514 5.34862 15.2542 5.11602 15.1837C3.47924 14.692 1.93738 13.9271 0.555619 12.9213C0.420793 12.8227 0.308349 12.6966 0.22567 12.5515C0.142991 12.4063 0.0919473 12.2454 0.0758887 12.0791C-0.242747 8.77428 0.404001 5.3984 2.74106 1.98698C2.86306 1.80812 3.03245 1.66598 3.23026 1.57595C4.4136 1.04055 5.65853 0.659134 6.94965 0.442367C7.44123 0.35945 7.93281 0.593985 8.18155 1.02752L8.28698 1.21823C9.08455 1.14952 9.88608 1.14952 10.6916 1.21823L10.7958 1.02752C10.9158 0.814927 11.0986 0.644608 11.3191 0.539864C11.5396 0.43512 11.7871 0.401068 12.0277 0.442367C13.307 0.656765 14.5626 1.037 15.7471 1.57358L15.7341 1.57121ZM11.3869 2.4904C10.1262 2.30448 8.84517 2.30448 7.58456 2.4904C7.45383 2.18925 7.30754 1.89509 7.14629 1.60912C5.96413 1.80812 4.81278 2.15992 3.72302 2.65386C1.55535 5.82838 0.974939 8.91997 1.25922 11.9642C2.52666 12.8917 3.94808 13.5988 5.45242 14.0489C5.64815 13.7896 5.83041 13.5204 5.99849 13.2423C6.12325 13.037 6.24052 12.8277 6.35029 12.6145C5.85968 12.4335 5.386 12.2095 4.93479 11.9452C5.05324 11.8592 5.16893 11.7731 5.28185 11.687C5.99528 12.0182 6.74506 12.2647 7.51585 12.4214C9.14858 12.748 10.8372 12.6596 12.4269 12.1644C12.8481 12.0337 13.2598 11.8738 13.6588 11.6858C13.7725 11.7782 13.8882 11.8643 14.0058 11.9441C13.8954 12.0077 13.7841 12.0697 13.6718 12.13C13.321 12.3144 12.959 12.4766 12.588 12.6157C12.7729 12.9712 12.9778 13.3161 13.2015 13.6486C13.2939 13.7828 13.3891 13.9159 13.487 14.0478C14.9914 13.5976 16.4128 12.8929 17.6802 11.963C18.0249 8.43314 17.0915 5.36523 15.2164 2.65268C14.1267 2.15874 12.9777 1.8093 11.7932 1.61149C11.6321 1.89735 11.486 2.19111 11.3549 2.49277L11.3869 2.4904Z" fill="#ECECEC"/>
</svg>
