<svg width="14" height="15" viewBox="0 0 14 15" fill="none" xmlns="http://www.w3.org/2000/svg">
<path d="M6.99912 14.2695V7.13438M3.9305 4.42445C2.68658 4.42445 1.74086 1.38293 4.33819 1.38293C5.93558 1.38293 6.99912 3.5121 6.99912 4.42445C6.99912 3.5121 8.06266 1.38293 9.66005 1.38293C12.2574 1.38293 11.3117 4.42445 10.0677 4.42445M12.5003 13.2278V7.13647H1.49792V13.2278C1.49792 13.5044 1.60777 13.7696 1.80331 13.9651C1.99885 14.1607 2.26406 14.2705 2.5406 14.2705H11.4576C11.7342 14.2705 11.9994 14.1607 12.1949 13.9651C12.3905 13.7696 12.5003 13.5044 12.5003 13.2278ZM13.3991 5.46713V6.09274C13.3991 6.36928 13.2893 6.63449 13.0937 6.83003C12.8982 7.02557 12.633 7.13543 12.3564 7.13543H1.64181C1.36527 7.13543 1.10006 7.02557 0.904516 6.83003C0.708975 6.63449 0.599121 6.36928 0.599121 6.09274V5.46713C0.599121 5.19059 0.708975 4.92538 0.904516 4.72984C1.10006 4.5343 1.36527 4.42445 1.64181 4.42445H12.3564C12.633 4.42445 12.8982 4.5343 13.0937 4.72984C13.2893 4.92538 13.3991 5.19059 13.3991 5.46713Z" stroke="url(#paint0_linear_5188_2424)" stroke-width="1.04269" stroke-linecap="round" stroke-linejoin="round"/>
<defs>
<linearGradient id="paint0_linear_5188_2424" x1="-17.2702" y1="-14.7441" x2="13.5671" y2="14.0909" gradientUnits="userSpaceOnUse">
<stop stop-color="#90A99A"/>
<stop offset="1" stop-color="#52705F"/>
</linearGradient>
</defs>
</svg>
