<svg width="15" height="17" viewBox="0 0 15 17" fill="none" xmlns="http://www.w3.org/2000/svg">
<path d="M14.4001 6.97642L7.50012 16.0139L0.585117 6.98392L0.652617 6.92392C0.810117 6.76642 0.997617 6.63892 1.18512 6.53392L6.54762 13.5314L4.93512 8.51392L5.43012 7.62142L7.50012 14.0489L9.54762 7.61392L10.0501 8.51392L8.45262 13.5314L13.8076 6.52642C13.9951 6.63892 14.1751 6.74392 14.3251 6.90142L14.4001 6.97642ZM2.25012 5.51392C3.37512 5.51392 4.35762 6.15892 4.87512 7.08892C5.12907 6.61333 5.50739 6.21562 5.96971 5.93823C6.43202 5.66084 6.96097 5.51419 7.50012 5.51392C8.62512 5.51392 9.60012 6.15142 10.1251 7.08142C10.3775 6.60508 10.7557 6.20707 11.2185 5.9307C11.6813 5.65433 12.2111 5.51017 12.7501 5.51392C13.5676 5.51392 14.3176 5.82892 14.8576 6.36892C14.2051 2.88892 11.1601 0.263916 7.50012 0.263916C3.81762 0.263916 0.772617 2.88892 0.120117 6.39142C0.667617 5.85142 1.41762 5.51392 2.25012 5.51392Z" fill="url(#paint0_linear_5188_2410)"/>
<defs>
<linearGradient id="paint0_linear_5188_2410" x1="-20.454" y1="-19.4451" x2="17.0159" y2="13.5639" gradientUnits="userSpaceOnUse">
<stop stop-color="#90A99A"/>
<stop offset="1" stop-color="#52705F"/>
</linearGradient>
</defs>
</svg>
