<svg width="21" height="18" viewBox="0 0 21 18" fill="none" xmlns="http://www.w3.org/2000/svg">
<path d="M10 13C6.4 13 3.4 11 1 7C3.4 3 6.4 1 10 1C13.6 1 16.6 3 19 7M15 16L19 12M14 14C14 14.7956 14.3161 15.5587 14.8787 16.1213C15.4413 16.6839 16.2044 17 17 17C17.7956 17 18.5587 16.6839 19.1213 16.1213C19.6839 15.5587 20 14.7956 20 14C20 13.2044 19.6839 12.4413 19.1213 11.8787C18.5587 11.3161 17.7956 11 17 11C16.2044 11 15.4413 11.3161 14.8787 11.8787C14.3161 12.4413 14 13.2044 14 14Z" stroke="#B6A05D" stroke-width="2" stroke-linecap="round" stroke-linejoin="round"/>
</svg>
