<svg width="26" height="21" viewBox="0 0 26 21" fill="none" xmlns="http://www.w3.org/2000/svg">
<path fill-rule="evenodd" clip-rule="evenodd" d="M21.3285 2.12813C21.588 2.24557 21.8107 2.43134 21.9728 2.66556C24.6599 6.54699 26.0113 10.9784 25.5085 16.0698C25.487 16.2902 25.4191 16.5034 25.3095 16.6957C25.1998 16.888 25.0507 17.0549 24.872 17.1856C23.0492 18.5228 20.9906 19.5427 18.822 20.187C18.5158 20.2793 18.1885 20.2749 17.8849 20.1746C17.5812 20.0742 17.3158 19.8826 17.1249 19.626C16.7449 19.1185 16.3959 18.5885 16.0799 18.0388C14.0747 18.4607 12.0037 18.4607 9.99847 18.0388C9.68662 18.5907 9.33802 19.1209 8.95504 19.626C8.76158 19.8839 8.49345 20.0761 8.18704 20.1765C7.88062 20.2768 7.55076 20.2805 7.24218 20.187C5.07077 19.5346 3.02528 18.5199 1.19218 17.1856C1.01332 17.0547 0.864146 16.8876 0.754461 16.695C0.644776 16.5024 0.577059 16.2889 0.555755 16.0683C0.133041 11.684 0.991041 7.20542 4.09147 2.6797C4.25333 2.44242 4.47804 2.25385 4.74047 2.13442C6.31033 1.42413 7.9619 0.918132 9.67475 0.630561C10.3269 0.520561 10.979 0.831704 11.309 1.40685L11.4489 1.65985C12.507 1.5687 13.5703 1.5687 14.6389 1.65985L14.7772 1.40685C14.9364 1.12481 15.1789 0.898861 15.4714 0.759904C15.7639 0.620947 16.0923 0.575772 16.4115 0.630561C18.1086 0.91499 19.7743 1.41942 21.3458 2.13127L21.3285 2.12813ZM15.5613 3.34756C13.8889 3.10091 12.1894 3.10091 10.517 3.34756C10.3436 2.94804 10.1495 2.5578 9.93561 2.17842C8.36733 2.44242 6.8399 2.90913 5.39418 3.56442C2.51847 7.77585 1.74847 11.8773 2.12561 15.9158C3.80704 17.1463 5.69275 18.0844 7.68847 18.6816C7.94813 18.3375 8.18993 17.9803 8.4129 17.6114C8.57842 17.339 8.73399 17.0614 8.87961 16.7786C8.22875 16.5385 7.60036 16.2413 7.00175 15.8907C7.1589 15.7765 7.31237 15.6623 7.46218 15.5481C8.40864 15.9875 9.40333 16.3145 10.4259 16.5224C12.5919 16.9557 14.8321 16.8384 16.941 16.1814C17.4999 16.0081 18.046 15.796 18.5753 15.5466C18.7262 15.6691 18.8797 15.7833 19.0358 15.8891C18.8893 15.9735 18.7415 16.0558 18.5926 16.1358C18.1273 16.3805 17.647 16.5956 17.1548 16.7801C17.4001 17.2518 17.6719 17.7093 17.9688 18.1504C18.0913 18.3285 18.2176 18.505 18.3475 18.68C20.3432 18.0828 22.2289 17.1478 23.9103 15.9143C24.3676 11.2314 23.1293 7.16142 20.6418 3.56285C19.196 2.90756 17.6718 2.44399 16.1003 2.18156C15.8866 2.5608 15.6928 2.95051 15.5189 3.3507L15.5613 3.34756Z" fill="#B6A05D"/>
</svg>
