<svg width="15" height="12" viewBox="0 0 15 12" fill="none" xmlns="http://www.w3.org/2000/svg">
<path fill-rule="evenodd" clip-rule="evenodd" d="M6.14487 3.93096L7.50012 1.76271L8.85537 3.93096C8.90173 4.00518 8.96288 4.06906 9.035 4.11862C9.10712 4.16818 9.18867 4.20237 9.27458 4.21904C9.36049 4.23572 9.4489 4.23453 9.53433 4.21555C9.61976 4.19656 9.70036 4.1602 9.77112 4.10871L12.6811 1.99221L11.5636 7.86171C11.5554 7.90448 11.5326 7.94306 11.4991 7.97084C11.4656 7.99862 11.4234 8.01387 11.3799 8.01396H3.62112C3.57745 8.01404 3.53512 7.99888 3.50144 7.97108C3.46776 7.94329 3.44483 7.90461 3.43662 7.86171L2.31912 1.99146L5.22912 4.10796C5.29986 4.15932 5.38041 4.19559 5.46575 4.2145C5.5511 4.23341 5.63943 4.23457 5.72524 4.2179C5.81106 4.20123 5.89253 4.16709 5.96459 4.1176C6.03664 4.06811 6.09776 4.00432 6.14412 3.93021M8.04012 0.504213C7.98283 0.412458 7.90314 0.33679 7.80854 0.28433C7.71394 0.231871 7.60754 0.204346 7.49937 0.204346C7.3912 0.204346 7.28481 0.231871 7.19021 0.28433C7.09561 0.33679 7.01591 0.412458 6.95862 0.504213L5.46762 2.89146L1.98462 0.357963C1.51737 0.018213 0.874621 0.425463 0.983371 0.992463L2.33112 8.07246C2.38839 8.37259 2.54857 8.64334 2.78406 8.83802C3.01955 9.03271 3.31558 9.13914 3.62112 9.13896H11.3799C11.6854 9.13893 11.9813 9.03232 12.2167 8.8375C12.452 8.64267 12.612 8.37185 12.6691 8.07171L14.0169 0.992463C14.1256 0.425463 13.4836 0.017463 13.0164 0.357963L9.53262 2.89146L8.04012 0.504213ZM3.00012 10.264C2.85094 10.264 2.70786 10.3232 2.60237 10.4287C2.49688 10.5342 2.43762 10.6773 2.43762 10.8265C2.43762 10.9756 2.49688 11.1187 2.60237 11.2242C2.70786 11.3297 2.85094 11.389 3.00012 11.389H12.0001C12.1493 11.389 12.2924 11.3297 12.3979 11.2242C12.5034 11.1187 12.5626 10.9756 12.5626 10.8265C12.5626 10.6773 12.5034 10.5342 12.3979 10.4287C12.2924 10.3232 12.1493 10.264 12.0001 10.264H3.00012Z" fill="#CE7011"/>
</svg>
